<svg xmlns="http://www.w3.org/2000/svg" viewBox="0 0 1200 900" role="img" aria-labelledby="title">
  <title id="title">Stylized neon Roblox-inspired world</title>
  <defs>
    <linearGradient id="sky" x1="0" y1="0" x2="0" y2="1"><stop stop-color="#070a18"/><stop offset=".58" stop-color="#111743"/><stop offset="1" stop-color="#03131a"/></linearGradient>
    <linearGradient id="city" x1="0" y1="0" x2="0" y2="1"><stop stop-color="#1f2a44"/><stop offset="1" stop-color="#05070c"/></linearGradient>
    <linearGradient id="avatar" x1="0" y1="0" x2="1" y2="1"><stop stop-color="#164e63"/><stop offset="1" stop-color="#0f172a"/></linearGradient>
    <radialGradient id="moon"><stop stop-color="#dbeafe"/><stop offset=".45" stop-color="#8b5cf6" stop-opacity=".5"/><stop offset="1" stop-color="#8b5cf6" stop-opacity="0"/></radialGradient>
    <filter id="glow"><feGaussianBlur stdDeviation="10" result="b"/><feMerge><feMergeNode in="b"/><feMergeNode in="SourceGraphic"/></feMerge></filter>
  </defs>
  <rect width="1200" height="900" fill="url(#sky)"/>
  <circle cx="950" cy="168" r="150" fill="url(#moon)"/>
  <g fill="#fff" opacity=".7"><circle cx="91" cy="112" r="2"/><circle cx="230" cy="212" r="3"/><circle cx="746" cy="100" r="2"/><circle cx="1063" cy="276" r="3"/><circle cx="551" cy="174" r="2"/></g>
  <path d="M0 454 105 390l84 34 96-103 107 75 112-131 104 124 120-84 95 96 102-63 75 80v282H0Z" fill="#111936" opacity=".72"/>
  <g fill="url(#city)" stroke="#3b4a6a" stroke-opacity=".5">
    <path d="M66 380h170v352H66Z"/><path d="M98 322h105v410H98Z"/><path d="m112 322 39-74 37 74Z"/>
    <path d="M274 430h145v302H274Z"/><path d="M445 352h184v380H445Z"/><path d="M490 280h93v452h-93Z"/><path d="m509 280 27-62 28 62Z"/>
    <path d="M665 402h162v330H665Z"/><path d="M847 330h196v402H847Z"/><path d="M892 250h110v482H892Z"/><path d="m912 250 36-81 34 81Z"/>
    <path d="M1058 430h108v302h-108Z"/>
  </g>
  <g fill="#fbbf24" opacity=".75" filter="url(#glow)">
    <rect x="117" y="382" width="18" height="34"/><rect x="161" y="382" width="18" height="34"/><rect x="117" y="454" width="18" height="34"/><rect x="161" y="454" width="18" height="34"/>
    <rect x="496" y="361" width="19" height="38"/><rect x="549" y="361" width="19" height="38"/><rect x="496" y="438" width="19" height="38"/><rect x="549" y="438" width="19" height="38"/>
    <rect x="911" y="336" width="20" height="40"/><rect x="965" y="336" width="20" height="40"/><rect x="911" y="419" width="20" height="40"/><rect x="965" y="419" width="20" height="40"/>
  </g>
  <path d="M0 674c270-78 482-54 681 18 183 67 337 54 519-9v217H0Z" fill="#031116"/>
  <path d="M0 746c292-46 493-8 689 48 190 54 331 46 511-12v118H0Z" fill="#02070a"/>

  <g transform="translate(162 493)">
    <ellipse cx="180" cy="319" rx="176" ry="31" fill="#000" opacity=".5"/>
    <rect x="118" y="0" width="124" height="116" rx="24" fill="#111827" stroke="#5eead4" stroke-opacity=".6" stroke-width="5"/>
    <path d="M97 108h166l50 202H47Z" fill="url(#avatar)" stroke="#4b5563" stroke-width="5"/>
    <path d="m141 149 38 32 39-34 19 82-58 43-57-42 19-81Z" fill="#22d3ee" opacity=".92" filter="url(#glow)"/>
    <path d="m61 122-58 89 44 75 54-50 9-121-49 7Zm237 0 60 89-45 75-55-50-8-121 48 7Z" fill="#0f172a" stroke="#4b5563" stroke-width="5"/>
    <path d="M108 304 87 388h84l19-84Zm81 0 19 84h85l-21-84Z" fill="#0f172a" stroke="#4b5563" stroke-width="5"/>
    <path d="M148 50h28M195 50h28" stroke="#5eead4" stroke-width="10" stroke-linecap="round" filter="url(#glow)"/>
  </g>
  <g fill="none" stroke-linecap="round" opacity=".65">
    <path d="M320 602c178-230 444-277 703-124" stroke="#22d3ee" stroke-width="4"/>
    <path d="M428 798c210-190 421-166 661-28" stroke="#8b5cf6" stroke-width="3"/>
  </g>
</svg>
