<svg xmlns="http://www.w3.org/2000/svg" viewBox="0 0 1200 700" role="img" aria-labelledby="title">
  <title id="title">Stylized multiplayer combat scene</title>
  <defs>
    <linearGradient id="sky" x1="0" y1="0" x2="0" y2="1"><stop stop-color="#111827"/><stop offset="1" stop-color="#030712"/></linearGradient>
    <radialGradient id="red" cx="52%" cy="58%" r="45%"><stop stop-color="#ef4444" stop-opacity=".45"/><stop offset="1" stop-color="#ef4444" stop-opacity="0"/></radialGradient>
    <linearGradient id="ground" x1="0" y1="0" x2="1" y2="1"><stop stop-color="#22283a"/><stop offset="1" stop-color="#080b12"/></linearGradient>
    <filter id="glow"><feGaussianBlur stdDeviation="10" result="b"/><feMerge><feMergeNode in="b"/><feMergeNode in="SourceGraphic"/></feMerge></filter>
  </defs>
  <rect width="1200" height="700" fill="url(#sky)"/>
  <circle cx="625" cy="416" r="340" fill="url(#red)"/>
  <g opacity=".38" fill="#334155">
    <path d="M0 310 140 214l98 82 134-122 142 134 150-177 154 164 124-116 158 123v174H0Z"/>
    <path d="M0 392 152 300l94 78 136-95 130 110 131-95 156 92 136-75 165 85v90H0Z" opacity=".55"/>
  </g>
  <path d="M0 462c285-71 584-61 1200 22v216H0Z" fill="url(#ground)"/>
  <g stroke="#64748b" stroke-opacity=".24" fill="none">
    <path d="M0 520c281-48 638-46 1200 39"/>
    <path d="M0 570c322-42 700-27 1200 55"/>
    <path d="M218 459 97 700M444 452 372 700M668 457 668 700M882 469 956 700"/>
  </g>

  <g transform="translate(462 215)">
    <ellipse cx="148" cy="330" rx="150" ry="34" fill="#000" opacity=".5"/>
    <rect x="86" y="68" width="122" height="112" rx="26" fill="#121826" stroke="#6b7280" stroke-width="6"/>
    <path d="M91 75c30-67 99-89 136-24l-19 26-117-2Z" fill="#1f2937"/>
    <path d="M112 118h31M167 118h31" stroke="#f87171" stroke-width="12" stroke-linecap="round" filter="url(#glow)"/>
    <path d="M77 172h141l54 153H31l46-153Z" fill="#101522" stroke="#4b5563" stroke-width="6"/>
    <path d="m128 204 26 25 28-26 15 70-43 34-43-33 17-70Z" fill="#ef4444" filter="url(#glow)"/>
    <path d="m33 185-70 77 44 87 55-42 14-130-43 8Zm190-1 72 78-45 89-56-44-13-130 42 7Z" fill="#0b0f18" stroke="#4b5563" stroke-width="6"/>
  </g>

  <g fill="#0f172a" stroke="#64748b" stroke-width="5">
    <g transform="translate(170 320)"><rect x="35" y="0" width="78" height="72" rx="15"/><path d="M25 68h98l30 105H0Z"/><path d="M12 84-40 140l31 47 43-36Zm129 0 52 56-31 47-43-36Z"/></g>
    <g transform="translate(850 328)"><rect x="35" y="0" width="78" height="72" rx="15"/><path d="M25 68h98l30 105H0Z"/><path d="M12 84-40 140l31 47 43-36Zm129 0 52 56-31 47-43-36Z"/></g>
  </g>
  <g fill="none" stroke-linecap="round" filter="url(#glow)">
    <path d="M224 533c151-174 540-181 740 8" stroke="#fb7185" stroke-width="11"/>
    <path d="M297 557c120-126 427-133 589 1" stroke="#ef4444" stroke-width="5" opacity=".8"/>
    <path d="M190 437 377 390" stroke="#f97316" stroke-width="7"/>
    <path d="m363 373 51 7-38 35Z" fill="#f97316" stroke="none"/>
    <path d="M1005 436 822 394" stroke="#38bdf8" stroke-width="7"/>
    <path d="m838 376-52 8 39 34Z" fill="#38bdf8" stroke="none"/>
  </g>
</svg>
