<svg xmlns="http://www.w3.org/2000/svg" viewBox="0 0 1200 650" role="img" aria-labelledby="title">
  <title id="title">Stylized neon game world</title>
  <defs>
    <linearGradient id="sky" x1="0" y1="0" x2="0" y2="1"><stop stop-color="#0d1230"/><stop offset=".55" stop-color="#17134a"/><stop offset="1" stop-color="#08131d"/></linearGradient>
    <linearGradient id="street" x1="0" y1="0" x2="0" y2="1"><stop stop-color="#18202c"/><stop offset="1" stop-color="#05070a"/></linearGradient>
    <filter id="glow"><feGaussianBlur stdDeviation="8" result="b"/><feMerge><feMergeNode in="b"/><feMergeNode in="SourceGraphic"/></feMerge></filter>
  </defs>
  <rect width="1200" height="650" fill="url(#sky)"/>
  <circle cx="935" cy="122" r="82" fill="#a78bfa" opacity=".28" filter="url(#glow)"/>
  <g fill="#0f172a" stroke="#2b3751" stroke-width="3">
    <path d="M0 200h170v320H0Z"/><path d="M185 142h175v378H185Z"/><path d="M378 230h147v290H378Z"/><path d="M845 165h170v355H845Z"/><path d="M1030 208h170v312h-170Z"/>
  </g>
  <g fill="#f59e0b" opacity=".8" filter="url(#glow)">
    <rect x="48" y="260" width="22" height="36"/><rect x="96" y="260" width="22" height="36"/><rect x="230" y="205" width="22" height="38"/><rect x="285" y="205" width="22" height="38"/>
    <rect x="895" y="230" width="22" height="38"/><rect x="952" y="230" width="22" height="38"/><rect x="1074" y="270" width="22" height="36"/><rect x="1128" y="270" width="22" height="36"/>
  </g>
  <path d="M0 478c310-74 619-68 1200 6v166H0Z" fill="url(#street)"/>
  <path d="M518 478 431 650h338l-89-172Z" fill="#0b1018" stroke="#334155" stroke-width="3"/>
  <path d="M595 495v155" stroke="#fbbf24" stroke-width="8" stroke-dasharray="28 28" opacity=".65"/>
  <g fill="none" stroke-linecap="round" filter="url(#glow)">
    <path d="M149 468c184-190 452-210 648-83" stroke="#22d3ee" stroke-width="4" opacity=".65"/>
    <path d="M395 425c207-158 442-131 666 20" stroke="#c084fc" stroke-width="4" opacity=".55"/>
  </g>
  <g transform="translate(540 340)">
    <rect x="38" y="0" width="84" height="78" rx="17" fill="#111827" stroke="#64748b" stroke-width="4"/>
    <path d="M27 72h106l32 116H0Z" fill="#0f172a" stroke="#475569" stroke-width="4"/>
    <path d="m55 96 26 23 27-24 13 57-40 31-39-30 13-57Z" fill="#8b5cf6" filter="url(#glow)"/>
  </g>
</svg>
